HIERARCHY
ROOT hip
{
  OFFSET 0 0 0
  CHANNELS 6 Xposition Yposition Zposition Zrotation Yrotation Xrotation
  JOINT abdomen
  {
    OFFSET 0 20.6881 -0.73152
    CHANNELS 3 Zrotation Xrotation Yrotation
    JOINT chest
    {
      OFFSET 0 11.7043 -0.48768
      CHANNELS 3 Zrotation Xrotation Yrotation
      JOINT neck
      {
        OFFSET 0 22.1894 -2.19456
        CHANNELS 3 Zrotation Xrotation Yrotation
        JOINT head
        {
          OFFSET -0.24384 7.07133 1.2192
          CHANNELS 3 Zrotation Xrotation Yrotation
          JOINT leftEye
          {
            OFFSET 4.14528 8.04674 8.04672
            CHANNELS 3 Zrotation Xrotation Yrotation
            End Site
            {
              OFFSET 1 0 0
            }
          }
          JOINT rightEye
          {
            OFFSET -3.6576 8.04674 8.04672
            CHANNELS 3 Zrotation Xrotation Yrotation
            End Site
            {
              OFFSET 1 0 0
            }
          }
        }
      }
      JOINT rCollar
      {
        OFFSET -2.68224 19.2634 -4.8768
        CHANNELS 3 Zrotation Xrotation Yrotation
        JOINT rShldr
        {
          OFFSET -8.77824 -1.95073 1.46304
          CHANNELS 3 Zrotation Xrotation Yrotation
          JOINT rForeArm
          {
            OFFSET -28.1742 -1.7115 0.48768
            CHANNELS 3 Zrotation Xrotation Yrotation
            JOINT rHand
            {
              OFFSET -22.5879 0.773209 7.07136
              CHANNELS 3 Zrotation Xrotation Yrotation
              JOINT rThumb1
              {
                OFFSET -1.2192 -0.487915 3.41376
                CHANNELS 3 Zrotation Xrotation Yrotation
                JOINT rThumb2
                {
                  OFFSET -3.37035 -0.52449 3.41376
                  CHANNELS 3 Zrotation Xrotation Yrotation
                  End Site
                  {
                    OFFSET -1.78271 -1.18214 1.43049
                  }
                }
              }
              JOINT rIndex1
              {
                OFFSET -7.75947 0.938293 5.60832
                CHANNELS 3 Zrotation Xrotation Yrotation
                JOINT rIndex2
                {
                  OFFSET -2.54057 -0.884171 1.56538
                  CHANNELS 3 Zrotation Xrotation Yrotation
                  End Site
                  {
                    OFFSET -1.62519 -0.234802 1.16502
                  }
                }
              }
              JOINT rMid1
              {
                OFFSET -8.24714 1.18213 3.41376
                CHANNELS 3 Zrotation Xrotation Yrotation
                JOINT rMid2
                {
                  OFFSET -3.10165 -0.590103 1.0647
                  CHANNELS 3 Zrotation Xrotation Yrotation
                  End Site
                  {
                    OFFSET -2.48547 -0.328903 0.83742
                  }
                }
              }
              JOINT rRing1
              {
                OFFSET -8.82822 0.546677 1.51678
                CHANNELS 3 Zrotation Xrotation Yrotation
                JOINT rRing2
                {
                  OFFSET -2.60934 -0.819778 -0.0198488
                  CHANNELS 3 Zrotation Xrotation Yrotation
                  End Site
                  {
                    OFFSET -2.33842 -0.294052 0.168128
                  }
                }
              }
              JOINT rPinky1
              {
                OFFSET -8.27202 -0.0477905 -0.4584
                CHANNELS 3 Zrotation Xrotation Yrotation
                JOINT rPinky2
                {
                  OFFSET -1.82734 -0.647385 -0.700984
                  CHANNELS 3 Zrotation Xrotation Yrotation
                  End Site
                  {
                    OFFSET -1.69225 -0.51767 -0.607171
                  }
                }
              }
            }
          }
        }
      }
      JOINT lCollar
      {
        OFFSET 2.68224 19.2634 -4.8768
        CHANNELS 3 Zrotation Xrotation Yrotation
        JOINT lShldr
        {
          OFFSET 8.77824 -1.95073 1.46304
          CHANNELS 3 Zrotation Xrotation Yrotation
          JOINT lForeArm
          {
            OFFSET 28.1742 -1.7115 0.48768
            CHANNELS 3 Zrotation Xrotation Yrotation
            JOINT lHand
            {
              OFFSET 22.5879 0.773209 7.07136
              CHANNELS 3 Zrotation Xrotation Yrotation
              JOINT lThumb1
              {
                OFFSET 1.2192 -0.487915 3.41376
                CHANNELS 3 Zrotation Xrotation Yrotation
                JOINT lThumb2
                {
                  OFFSET 3.37035 -0.52449 3.41376
                  CHANNELS 3 Zrotation Xrotation Yrotation
                  End Site
                  {
                    OFFSET 1.78271 -1.18214 1.43049
                  }
                }
              }
              JOINT lIndex1
              {
                OFFSET 7.75947 0.938293 5.60832
                CHANNELS 3 Zrotation Xrotation Yrotation
                JOINT lIndex2
                {
                  OFFSET 2.54057 -0.884171 1.56538
                  CHANNELS 3 Zrotation Xrotation Yrotation
                  End Site
                  {
                    OFFSET 1.62519 -0.234802 1.16502
                  }
                }
              }
              JOINT lMid1
              {
                OFFSET 8.24714 1.18213 3.41376
                CHANNELS 3 Zrotation Xrotation Yrotation
                JOINT lMid2
                {
                  OFFSET 3.10165 -0.590103 1.0647
                  CHANNELS 3 Zrotation Xrotation Yrotation
                  End Site
                  {
                    OFFSET 2.48547 -0.328903 0.83742
                  }
                }
              }
              JOINT lRing1
              {
                OFFSET 8.82822 0.546677 1.51678
                CHANNELS 3 Zrotation Xrotation Yrotation
                JOINT lRing2
                {
                  OFFSET 2.60934 -0.819778 -0.0198488
                  CHANNELS 3 Zrotation Xrotation Yrotation
                  End Site
                  {
                    OFFSET 2.33842 -0.294052 0.168128
                  }
                }
              }
              JOINT lPinky1
              {
                OFFSET 8.27202 -0.0477905 -0.4584
                CHANNELS 3 Zrotation Xrotation Yrotation
                JOINT lPinky2
                {
                  OFFSET 1.82734 -0.647385 -0.700984
                  CHANNELS 3 Zrotation Xrotation Yrotation
                  End Site
                  {
                    OFFSET 1.69225 -0.51767 -0.607171
                  }
                }
              }
            }
          }
        }
      }
    }
  }
  JOINT rButtock
  {
    OFFSET -8.77824 4.35084 1.2192
    CHANNELS 3 Zrotation Xrotation Yrotation
    JOINT rThigh
    {
      OFFSET 0 -1.70687 -2.19456
      CHANNELS 3 Zrotation Xrotation Yrotation
      JOINT rShin
      {
        OFFSET 0 -36.8199 0.73152
        CHANNELS 3 Zrotation Xrotation Yrotation
        JOINT rFoot
        {
          OFFSET 0.73152 -45.1104 -5.12064
          CHANNELS 3 Zrotation Xrotation Yrotation
          End Site
          {
            OFFSET -1.1221 -3.69964 12.103
          }
        }
      }
    }
  }
  JOINT lButtock
  {
    OFFSET 8.77824 4.35084 1.2192
    CHANNELS 3 Zrotation Xrotation Yrotation
    JOINT lThigh
    {
      OFFSET 0 -1.70687 -2.19456
      CHANNELS 3 Zrotation Xrotation Yrotation
      JOINT lShin
      {
        OFFSET 0 -36.8199 0.73152
        CHANNELS 3 Zrotation Xrotation Yrotation
        JOINT lFoot
        {
          OFFSET -0.73152 -45.1104 -5.12064
          CHANNELS 3 Zrotation Xrotation Yrotation
          End Site
          {
            OFFSET 1.1221 -3.69964 12.103
          }
        }
      }
    }
  }
}
MOTION
Frames:	6
Frame Time:	0.00833333
10.2139 85.2343 -199.419 0.0 0.0 0.0 0.70519 -0.00371385 0.0199543 0.194579 -0.00526911 0.0337141 -3.2614e-15 0.0 -1.24241e-17 -9.63174e-15 3.18055e-15 -5.28022e-17 -0.0 0.0 0.0 -0.0 0.0 0.0 -1.54195e-15 1.35888e-18 1.98785e-16 -3.30347e-14 -1.2424e-16 1.98785e-16 -5.90937e-13 1.75328e-13 -9.54166e-15 -6.76213e-12 -1.82484e-13 -6.36111e-14 -1.59562e-11 -1.62413e-14 -1.43125e-13 -2.75679e-11 -2.8625e-14 -2.36156e-13 -1.59529e-11 -1.82882e-14 -1.46306e-13 7.73091 5.47488 0.417314 -1.59575e-11 -1.66979e-14 -1.36764e-13 2.90554 0.965183 0.102902 -1.59534e-11 -1.65985e-14 -1.35174e-13 10.2786 0.731801 0.0259123 -1.59656e-11 -1.11319e-14 -1.27222e-13 2.22167 -0.733487 -0.20892 -1.7381e-15 1.16475e-18 -1.98785e-16 -3.45726e-14 -1.42876e-16 -9.93923e-16 -5.88204e-13 -1.79701e-13 -1.27222e-14 -6.76339e-12 1.66606e-13 -3.81667e-14 -1.59455e-11 -2.71214e-14 -1.24042e-13 -2.75317e-11 -4.13472e-14 -2.17073e-13 -1.59489e-11 -2.90226e-14 -1.145e-13 -7.73091 5.47488 -0.417314 -1.59441e-11 -2.80286e-14 -1.30403e-13 -2.90554 0.965183 -0.102902 -1.59488e-11 -2.70347e-14 -1.28812e-13 -10.2786 0.731801 -0.0259123 -1.59372e-11 -2.3059e-14 -1.36764e-13 -2.22167 -0.733487 0.20892 -2.03217e-16 0.0 -3.88251e-19 1.03765 -4.8484 -0.0878806 -0.00129045 3.22992 0.00172157 -0.507964 1.61857 0.090946 2.03217e-16 0.0 3.88251e-19 0.0357967 -2.16336 0.0186169 0.00864554 -1.63356 0.0730548 0.498184 3.79688 -0.134162
10.3875 83.3871 -201.142 -1.1495 6.6656 5.6935 -0.343789 1.74045 -1.22256 1.4517 0.571616 -0.362007 -2.00139 3.12442 -0.96967 0.561913 6.25087 -1.82392 -0.0 0.0 0.0 -0.0 0.0 0.0 4.9347e-15 -3.74326e-14 3.32856e-14 20.2795 -2.62751 0.311704 -2.63475 -0.994293 4.30929 0.00389468 1.38761 0.194811 -2.45841e-10 4.12667e-10 5.76427e-10 -4.22264e-10 7.15326e-10 9.97637e-10 -2.45837e-10 4.12666e-10 5.76422e-10 7.73091 5.47488 0.417314 -2.45841e-10 4.12667e-10 5.76431e-10 2.90554 0.965183 0.102902 -2.45835e-10 4.12667e-10 5.76433e-10 10.2786 0.731801 0.0259123 -2.45848e-10 4.12671e-10 5.76441e-10 2.22167 -0.733487 -0.20892 4.79753e-15 -3.74328e-14 3.29276e-14 -21.0682 3.16695 0.912492 5.60142 -2.89791 -8.33198 -0.0076854 1.9583 -0.274653 -5.15921e-10 -8.51477e-10 -6.68136e-11 -8.92702e-10 -1.47334e-09 -1.11183e-10 -5.15925e-10 -8.51478e-10 -6.68079e-11 -7.73091 5.47488 -0.417314 -5.1592e-10 -8.51479e-10 -6.682e-11 -2.90554 0.965183 -0.102902 -5.15926e-10 -8.51478e-10 -6.6818e-11 -10.2786 0.731801 -0.0259123 -5.15914e-10 -8.51475e-10 -6.68255e-11 -2.22167 -0.733487 0.20892 -2.03217e-16 0.0 -3.88251e-19 1.10962 -9.38514 -1.81869 0.00429509 12.4426 0.149377 -0.598539 -3.45053 -0.597918 2.03217e-16 0.0 3.88251e-19 -0.455708 -6.31744 -0.56667 -0.00148172 6.53449 -0.0519622 0.415079 -2.46748 -0.671074
10.378 83.4029 -201.101 -1.1773 6.6745 5.7013 -1.38079 3.59167 -2.54797 2.79098 1.17788 -0.782972 -3.99728 6.42163 -2.00146 1.59228 12.8365 -3.81888 -0.0 0.0 0.0 -0.0 0.0 0.0 1.36015e-14 -7.94138e-14 6.80216e-14 41.7484 -5.40948 0.646116 -5.25708 -2.0262 8.86758 -0.00228924 2.8654 0.402672 -5.08284e-10 8.45053e-10 1.20775e-09 -8.72965e-10 1.4649e-09 2.09031e-09 -5.0828e-10 8.45053e-10 1.20775e-09 7.73091 5.47488 0.417314 -5.08284e-10 8.45053e-10 1.20776e-09 2.90554 0.965183 0.102902 -5.08275e-10 8.45053e-10 1.20776e-09 10.2786 0.731801 0.0259123 -5.0829e-10 8.45055e-10 1.20777e-09 2.22167 -0.733487 -0.20892 1.35273e-14 -7.9414e-14 6.77048e-14 -43.4499 6.50728 1.89528 10.607 -5.74899 -17.1942 0.00478117 4.05485 -0.5698 -1.07183e-09 -1.7813e-09 -1.52071e-10 -1.85469e-09 -3.08225e-09 -2.53801e-10 -1.07183e-09 -1.7813e-09 -1.5207e-10 -7.73091 5.47488 -0.417314 -1.07183e-09 -1.7813e-09 -1.52078e-10 -2.90554 0.965183 -0.102902 -1.07184e-09 -1.7813e-09 -1.52075e-10 -10.2786 0.731801 -0.0259123 -1.07182e-09 -1.7813e-09 -1.52083e-10 -2.22167 -0.733487 0.20892 -2.03217e-16 0.0 -3.88251e-19 0.85545 -14.1835 -3.73252 -0.045704 22.2251 0.322504 -0.824617 -8.7924 -1.32527 2.03217e-16 0.0 3.88251e-19 -1.08188 -10.6972 -1.19798 0.0275188 15.1612 -0.189864 0.196294 -9.09389 -1.26071
10.3498 83.4174 -201.047 -1.1709 6.6387 5.6816 -2.21418 5.21901 -3.72134 3.98987 1.72507 -1.15392 -5.68341 9.36244 -2.94394 2.934 18.6744 -5.74249 -0.0 0.0 0.0 -0.0 0.0 0.0 1.7888e-14 -1.12301e-13 9.94591e-14 60.925 -7.88158 0.943039 -7.4593 -2.91547 12.943 -0.0166873 4.16265 0.585808 -7.0561e-10 1.23803e-09 1.72957e-09 -1.21166e-09 2.14603e-09 2.99338e-09 -7.05605e-10 1.23803e-09 1.72956e-09 7.73091 5.47488 0.417314 -7.05609e-10 1.23803e-09 1.72957e-09 2.90554 0.965183 0.102902 -7.05597e-10 1.23803e-09 1.72957e-09 10.2786 0.731801 0.0259123 -7.05613e-10 1.23803e-09 1.72958e-09 2.22167 -0.733487 -0.20892 1.78688e-14 -1.12301e-13 9.91803e-14 -63.5106 9.49113 2.77126 14.3446 -7.95985 -25.2235 0.0335188 5.87436 -0.827826 -1.51587e-09 -2.55438e-09 -2.00193e-10 -2.62304e-09 -4.41994e-09 -3.33113e-10 -1.51588e-09 -2.55438e-09 -2.00195e-10 -7.73091 5.47488 -0.417314 -1.51587e-09 -2.55438e-09 -2.00199e-10 -2.90554 0.965183 -0.102902 -1.51588e-09 -2.55438e-09 -2.00196e-10 -10.2786 0.731801 -0.0259123 -1.51587e-09 -2.55438e-09 -2.00203e-10 -2.22167 -0.733487 0.20892 -2.03217e-16 0.0 -3.88251e-19 0.391893 -18.3935 -5.4891 -0.147685 30.8671 0.505814 -1.15352 -13.5811 -2.02908 2.03217e-16 0.0 3.88251e-19 -1.70084 -14.6197 -1.78469 0.0916216 22.8703 -0.326599 -0.113696 -14.9896 -1.80506
10.2796 83.4319 -201.003 -1.3279 6.7256 5.619 -2.70383 6.29643 -4.5009 4.82089 2.12488 -1.39937 -6.82073 11.4223 -3.63029 4.16207 22.7159 -7.23318 -0.0 0.0 0.0 -0.0 0.0 0.0 1.12239e-14 -1.22451e-13 1.2265e-13 74.3083 -9.57992 1.13847 -8.92305 -3.51214 15.7968 -0.030868 5.00875 0.70575 -7.40139e-10 1.5325e-09 1.97759e-09 -1.27033e-09 2.65607e-09 3.42247e-09 -7.40134e-10 1.5325e-09 1.97758e-09 7.73091 5.47488 0.417314 -7.40138e-10 1.5325e-09 1.97759e-09 2.90554 0.965183 0.102902 -7.40125e-10 1.5325e-09 1.97759e-09 10.2786 0.731801 0.0259123 -7.40141e-10 1.5325e-09 1.9776e-09 2.22167 -0.733487 -0.20892 1.12395e-14 -1.22451e-13 1.22402e-13 -77.547 11.5934 3.34755 16.603 -9.25971 -30.9562 0.0605084 7.00184 -0.989021 -1.68024e-09 -2.93559e-09 -1.55472e-10 -2.90729e-09 -5.07954e-09 -2.5416e-10 -1.68025e-09 -2.93559e-09 -1.55475e-10 -7.73091 5.47488 -0.417314 -1.68024e-09 -2.9356e-09 -1.55478e-10 -2.90554 0.965183 -0.102902 -1.68025e-09 -2.9356e-09 -1.55475e-10 -10.2786 0.731801 -0.0259123 -1.68024e-09 -2.93559e-09 -1.55481e-10 -2.22167 -0.733487 0.20892 -2.03217e-16 0.0 -3.88251e-19 0.0493265 -21.1954 -6.66229 -0.255638 36.6586 0.657155 -1.4876 -16.9935 -2.62398 2.03217e-16 0.0 3.88251e-19 -2.11625 -17.4043 -2.21774 0.161913 28.2858 -0.435717 -0.383588 -19.0653 -2.17249
10.2185 83.4262 -200.986 -1.4588 6.6098 5.8126 -2.7789 6.5983 -4.71619 5.13483 2.32672 -1.46805 -7.29547 12.2534 -3.93374 4.79794 24.292 -7.92453 -0.0 0.0 0.0 -0.0 0.0 0.0 -1.54859e-14 -9.64482e-14 1.38671e-13 79.549 -10.1932 1.18368 -9.49004 -3.74481 16.9354 -0.0354858 5.20963 0.734335 -5.08527e-10 1.70991e-09 1.83921e-09 -8.70978e-10 2.96256e-09 3.18249e-09 -5.08523e-10 1.70991e-09 1.8392e-09 7.73091 5.47488 0.417314 -5.08527e-10 1.70991e-09 1.83921e-09 2.90554 0.965183 0.102902 -5.08514e-10 1.70991e-09 1.83921e-09 10.2786 0.731801 0.0259123 -5.0853e-10 1.70991e-09 1.83922e-09 2.22167 -0.733487 -0.20892 -1.54641e-14 -9.64478e-14 1.38445e-13 -83.0466 12.4869 3.47088 17.4698 -9.75493 -33.3587 0.0660528 7.12212 -1.00645 -1.40933e-09 -2.7512e-09 4.89036e-11 -2.43803e-09 -4.76042e-09 9.73346e-11 -1.40933e-09 -2.7512e-09 4.89028e-11 -7.73091 5.47488 -0.417314 -1.40933e-09 -2.75121e-09 4.88978e-11 -2.90554 0.965183 -0.102902 -1.40934e-09 -2.75121e-09 4.89011e-11 -10.2786 0.731801 -0.0259123 -1.40932e-09 -2.7512e-09 4.8895e-11 -2.22167 -0.733487 0.20892 -2.03217e-16 0.0 -3.88251e-19 0.184973 -22.0602 -6.90783 -0.298226 38.4461 0.715524 -1.70211 -18.5093 -3.00844 2.03217e-16 0.0 3.88251e-19 -2.14854 -18.6136 -2.39444 0.197706 30.501 -0.48495 -0.461982 -20.6009 -2.22669
